<?xml version="1.0" standalone="no"?>
<!DOCTYPE svg PUBLIC "-//W3C//DTD SVG 20010904//EN"
 "http://www.w3.org/TR/2001/REC-SVG-20010904/DTD/svg10.dtd">
<svg version="1.0" xmlns="http://www.w3.org/2000/svg"
 width="273.000000pt" height="154.000000pt" viewBox="0 0 273.000000 154.000000"
 preserveAspectRatio="xMidYMid meet">

<g transform="translate(0.000000,154.000000) scale(0.100000,-0.100000)"
fill="#000000" stroke="none">
<path d="M0 1245 c0 -13 158 -15 1365 -15 1207 0 1365 2 1365 15 0 13 -158 15
-1365 15 -1207 0 -1365 -2 -1365 -15z"/>
<path d="M0 780 l0 -390 770 0 770 0 0 390 0 390 -770 0 -770 0 0 -390z m75
50 c3 -6 -5 -10 -19 -10 -36 0 -35 -30 2 -31 l27 -2 -27 -4 c-19 -3 -28 -10
-28 -23 0 -13 9 -20 28 -23 25 -4 25 -4 -5 -6 l-33 -1 0 53 c0 49 2 53 25 55
13 1 27 -3 30 -8z m242 -3 c3 -4 -3 -7 -15 -7 -19 0 -22 -6 -24 -47 l-2 -48
-3 48 c-3 33 -8 47 -19 47 -7 0 -14 4 -14 9 0 10 66 8 77 -2z m88 3 c4 -6 -5
-10 -19 -10 -36 0 -35 -30 2 -31 l27 -2 -27 -4 c-19 -3 -28 -10 -28 -23 0 -13
9 -20 28 -23 25 -4 25 -4 -5 -6 l-33 -1 0 55 c0 52 1 55 24 55 14 0 28 -4 31
-10z m109 -6 c19 -19 20 -26 4 -42 -10 -10 -10 -17 0 -32 17 -28 -2 -25 -21 3
-14 18 -18 20 -26 7 -5 -8 -7 -18 -5 -22 3 -4 0 -8 -5 -8 -12 0 -15 92 -4 103
11 12 41 7 57 -9z m123 3 c3 -4 -3 -7 -15 -7 -19 0 -22 -6 -24 -47 l-2 -48 -3
48 c-3 33 -8 47 -19 47 -7 0 -14 4 -14 9 0 10 66 8 77 -2z m239 -29 l29 -42 6
45 c6 42 6 42 7 -16 l1 -60 -32 40 -32 39 -6 -39 c-6 -37 -6 -35 -8 18 0 31 1
57 3 57 2 0 16 -19 32 -42z m192 -15 c-1 -47 -2 -51 -5 -18 l-4 40 -20 -25
-19 -25 -20 25 -20 25 0 -37 c0 -21 -3 -38 -8 -38 -8 0 -8 88 1 96 3 3 13 -6
22 -20 22 -33 27 -33 48 4 10 17 20 30 23 30 2 0 3 -26 2 -57z m108 45 c4 -5
-5 -8 -19 -8 -37 0 -36 -29 1 -31 l27 -2 -27 -4 c-19 -3 -28 -10 -28 -23 0
-13 9 -20 28 -23 25 -4 25 -4 -5 -6 -35 -1 -35 0 -35 69 0 11 0 24 1 28 1 10
47 10 57 0z m234 2 c0 -6 -7 -10 -15 -10 -11 0 -15 -13 -17 -47 l-2 -48 -3 48
c-3 39 -7 47 -24 47 -11 0 -18 4 -15 8 7 12 76 13 76 2z m-1248 -37 l23 -38 6
40 c6 39 6 39 8 -12 0 -29 -1 -53 -4 -53 -3 0 -18 18 -34 41 l-30 40 -4 -43
c-3 -42 -4 -42 -5 10 -1 28 2 52 7 52 5 0 20 -17 33 -37z m576 -13 c12 -27 17
-50 11 -50 -5 0 -9 5 -9 10 0 15 -58 12 -63 -2 -2 -7 -7 -10 -11 -7 -8 7 32
99 43 99 5 0 18 -22 29 -50z m62 0 c0 -27 -3 -50 -7 -50 -5 0 -7 19 -7 43 2
53 3 57 9 57 3 0 5 -22 5 -50z m460 12 l25 -37 6 40 c6 39 6 39 8 -12 0 -29
-2 -53 -6 -53 -5 0 -19 17 -33 37 l-25 37 -5 -40 c-9 -70 -19 -22 -11 54 2 21
15 13 41 -26z"/>
<path d="M462 803 c2 -10 13 -19 26 -21 17 -3 22 2 22 17 0 16 -6 21 -26 21
-19 0 -25 -5 -22 -17z"/>
<path d="M697 790 c-4 -15 0 -20 14 -20 17 0 18 3 9 20 -6 11 -12 20 -14 20
-2 0 -6 -9 -9 -20z"/>
<path d="M1990 785 l0 -125 35 0 35 0 0 50 0 50 39 0 40 0 3 -47 c3 -46 4 -48
36 -51 l32 -3 0 125 0 126 -35 0 c-35 0 -35 0 -35 -45 l0 -45 -40 0 -40 0 0
45 c0 45 0 45 -35 45 l-35 0 0 -125z"/>
<path d="M2270 824 c0 -123 28 -163 113 -164 41 0 53 5 78 29 28 28 29 33 29
125 l0 96 -35 0 -34 0 -3 -92 c-3 -88 -4 -93 -26 -96 -42 -6 -52 13 -52 104
l0 84 -35 0 -35 0 0 -86z"/>
<path d="M2550 785 l0 -126 88 3 87 3 0 120 0 120 -87 3 -88 3 0 -126z m135
50 c0 -15 -8 -21 -32 -23 -30 -3 -33 -1 -33 23 0 24 3 26 33 23 24 -2 32 -8
32 -23z m8 -87 c8 -25 -6 -38 -39 -38 -30 0 -34 3 -34 25 0 22 4 25 34 25 19
0 36 -6 39 -12z"/>
<path d="M0 315 c0 -13 158 -15 1365 -15 1207 0 1365 2 1365 15 0 13 -158 15
-1365 15 -1207 0 -1365 -2 -1365 -15z"/>
</g>
</svg>
